PathFileType	4	(X/Y/Z)	C:/Users/dbak576/Desktop/Duncan Bakke Modelling Files/H26s1/Static_H26s1.trc	
DataRate	CameraRate	NumFrames	NumMarkers	Units	OrigDataRate	OrigDataStartFrame	OrigNumFrames	
200.00	200.00	4	61	mm	200.00	1	14	
Frame#	Time	LFHD			RFHD			LBHD			RBHD			C7			T10			CLAV			STRN			RBack			LASI			RASI			LPSI			RPSI			RACR1			RUA1			RElbow			RElbowM			RFA1			RWRR			RWRU			RCAR			LACR1			LUA1			LElbow			LElbowM			LFA1			LWRR			LWRU			LCAR			RTH1			RTH3			RTH2			RTH4			RLFC			RMFC			RTB1			RTB3			RTB2			RTB4			RLMAL			RMMAL			RCAL			RMT1			RMT5			RToe			LTH1			LTH3			LTH2			LTH4			LLFC			LMFC			LTB1			LTB3			LTB2			LTB4			LLMAL			LMMAL			LCAL			LMT1			LMT5			LToe			
		X1	Y1	Z1	X2	Y2	Z2	X3	Y3	Z3	X4	Y4	Z4	X5	Y5	Z5	X6	Y6	Z6	X7	Y7	Z7	X8	Y8	Z8	X9	Y9	Z9	X10	Y10	Z10	X11	Y11	Z11	X12	Y12	Z12	X13	Y13	Z13	X14	Y14	Z14	X15	Y15	Z15	X16	Y16	Z16	X17	Y17	Z17	X18	Y18	Z18	X19	Y19	Z19	X20	Y20	Z20	X21	Y21	Z21	X22	Y22	Z22	X23	Y23	Z23	X24	Y24	Z24	X25	Y25	Z25	X26	Y26	Z26	X27	Y27	Z27	X28	Y28	Z28	X29	Y29	Z29	X30	Y30	Z30	X31	Y31	Z31	X32	Y32	Z32	X33	Y33	Z33	X34	Y34	Z34	X35	Y35	Z35	X36	Y36	Z36	X37	Y37	Z37	X38	Y38	Z38	X39	Y39	Z39	X40	Y40	Z40	X41	Y41	Z41	X42	Y42	Z42	X43	Y43	Z43	X44	Y44	Z44	X45	Y45	Z45	X46	Y46	Z46	X47	Y47	Z47	X48	Y48	Z48	X49	Y49	Z49	X50	Y50	Z50	X51	Y51	Z51	X52	Y52	Z52	X53	Y53	Z53	X54	Y54	Z54	X55	Y55	Z55	X56	Y56	Z56	X57	Y57	Z57	X58	Y58	Z58	X59	Y59	Z59	X60	Y60	Z60	X61	Y61	Z61	

1	0.000	-42.36605	-355.31451	1604.12769	55.45623	-356.69727	1601.05725	-73.78846	-500.44595	1559.61890	59.15760	-524.92017	1563.70923	4.78006	-527.90979	1414.96960	4.10890	-535.29852	1079.31714	-1.91350	-352.98837	1360.19067	10.25338	-280.35822	1249.43872	97.70387	-570.50800	1313.70190	-165.96927	-315.99197	963.95135	187.46687	-308.72101	970.08807	-81.00986	-549.68329	982.89874	51.36419	-556.60773	980.47864	142.58264	-458.89096	1420.95386	275.32111	-477.45541	1369.91882	421.26892	-452.86896	1314.27319	398.96371	-388.17871	1267.10059	552.68201	-431.59695	1346.78052	651.23151	-391.13928	1362.18506	657.17444	-405.69565	1292.52600	717.10834	-402.18362	1328.31592	-130.55569	-465.11185	1411.02588	-271.88452	-454.35245	1388.47290	-411.17419	-433.88470	1343.36487	-389.13699	-354.13727	1275.43140	-535.72900	-396.76941	1369.12122	-643.54834	-343.44843	1375.03845	-651.25690	-376.58682	1305.76880	-701.08228	-366.80975	1336.17627	245.17171	-403.63000	723.10687	214.67194	-445.12729	558.06006	214.52255	-370.54276	631.03821	232.87515	-426.19550	642.29523	204.19926	-459.01318	466.06033	24.94744	-449.55927	443.70374	131.65738	-406.74716	349.81079	153.14679	-432.18295	182.21838	202.60526	-437.76401	278.02762	142.80872	-424.22943	265.62302	213.46030	-483.33936	67.71593	129.36032	-461.16202	70.22202	171.21887	-534.60150	27.05411	142.10507	-344.24811	34.58163	233.97256	-360.20908	27.35704	154.43509	-297.07831	30.45356	-218.49625	-363.43765	720.76141	-174.42801	-402.22021	556.70789	-166.85007	-332.59088	635.19330	-198.22742	-383.69971	639.58673	-164.16414	-440.02475	488.35410	7.39381	-453.42639	458.62906	-83.24933	-413.39114	329.20331	-112.02641	-433.80212	161.33769	-158.41800	-435.51788	257.14523	-98.27689	-427.56168	245.83739	-174.77675	-487.86292	71.09081	-92.99986	-466.71289	69.59059	-130.60956	-537.27155	29.38894	-119.01067	-342.77673	36.95834	-205.64275	-371.71674	25.30782	-125.19682	-296.73856	28.20783 
2	0.005	-42.44063	-355.22641	1604.12842	55.41321	-356.61005	1601.07874	-73.81232	-500.41840	1559.63721	59.20301	-524.80219	1563.71252	4.73585	-527.92554	1415.03784	4.10218	-535.30353	1079.34131	-1.94775	-352.93182	1360.18298	10.20588	-280.29169	1249.41187	97.66466	-570.44244	1313.70996	-165.97502	-315.99020	963.93951	187.41884	-308.71783	970.04865	-81.00075	-549.68268	982.88055	51.37765	-556.58630	980.47656	142.55898	-458.80795	1420.94238	275.34116	-477.37491	1369.94531	421.29010	-452.80075	1314.30493	398.96371	-388.17871	1267.10059	552.68390	-431.52307	1346.81946	651.23309	-391.14059	1362.20020	657.15973	-405.69131	1292.49915	717.11267	-402.18164	1328.31213	-130.56094	-465.08261	1411.04089	-271.90714	-454.32040	1388.44348	-411.16867	-433.83804	1343.32288	-388.93427	-353.88495	1275.54480	-535.77350	-396.75076	1369.06250	-643.59583	-343.44766	1374.97119	-651.54254	-376.57324	1305.75024	-701.08875	-366.74591	1336.12061	245.16997	-403.63644	723.09656	214.67102	-445.04187	558.06555	214.54417	-370.52817	631.12817	233.04625	-426.16119	642.42657	204.19926	-459.01318	466.06033	24.94582	-449.56207	443.70288	131.66187	-406.75006	349.81760	153.16682	-432.20633	182.20720	202.61850	-437.76157	278.02924	142.81462	-424.19327	265.56879	213.49223	-483.36044	67.74288	129.37057	-461.15350	70.19335	171.21425	-534.60431	27.05302	142.10425	-344.24847	34.58109	233.91573	-360.19620	27.32593	154.24719	-297.02206	30.65481	-218.48085	-363.42438	720.75543	-174.43550	-402.16803	556.70660	-166.81453	-332.58643	635.18103	-198.26042	-383.68564	639.58429	-164.16492	-440.02438	488.35251	7.39381	-453.42639	458.62906	-83.24872	-413.38971	329.20102	-112.00376	-433.78259	161.32173	-158.42216	-435.52466	257.15497	-98.30504	-427.55655	245.81119	-174.78127	-487.85849	71.09923	-93.00917	-466.68640	69.62064	-130.76755	-537.19104	29.14298	-119.02418	-342.77185	36.93459	-205.61790	-371.73831	25.34535	-125.20255	-296.74380	28.18392 
3	0.010	-42.49091	-355.13519	1604.14038	55.36258	-356.50076	1601.06592	-73.77976	-500.29184	1559.63879	59.15618	-524.75543	1563.70959	4.74402	-527.84283	1414.97620	4.12310	-535.22681	1079.33484	-1.97738	-352.89014	1360.17651	10.17083	-280.20294	1249.42542	97.70144	-570.38940	1313.72864	-165.99156	-315.98746	963.91986	187.41280	-308.68915	970.07367	-80.98117	-549.64032	982.91064	51.36554	-556.51898	980.47168	142.52637	-458.73315	1420.94006	275.28754	-477.29077	1369.97314	421.26407	-452.76047	1314.31238	398.96371	-388.17871	1267.10059	552.66150	-431.48538	1346.81482	651.21240	-391.09946	1362.21338	657.12561	-405.65125	1292.53821	717.11292	-402.18149	1328.31201	-130.54654	-465.01581	1411.03125	-271.92911	-454.27094	1388.45764	-411.15945	-433.80353	1343.30005	-388.94525	-353.86227	1275.46484	-535.78113	-396.74954	1369.02917	-643.64056	-343.44400	1374.93774	-651.55933	-376.57373	1305.75366	-701.12372	-366.72473	1336.11121	245.17949	-403.60162	723.11176	214.82245	-445.09317	558.13727	214.52434	-370.50479	631.06757	233.17551	-426.76056	641.90344	203.63402	-458.74866	465.82758	24.95099	-449.55634	443.70642	131.65927	-406.74908	349.81390	153.15239	-432.18506	182.22093	202.32851	-437.87891	277.87671	142.82468	-424.19836	265.57947	213.46599	-483.37369	67.73952	129.36606	-461.15823	70.21861	171.21844	-534.60175	27.05410	142.10855	-344.27466	34.58154	233.93129	-360.18130	27.35712	154.42505	-297.06738	30.45633	-218.50218	-363.39307	720.76233	-174.40578	-402.16080	556.69604	-166.84325	-332.55130	635.19318	-198.25453	-383.64456	639.58276	-164.16270	-440.02164	488.34991	7.38921	-453.43640	458.62756	-83.24911	-413.38962	329.20026	-112.00823	-433.78653	161.32869	-158.46562	-435.53174	257.20551	-98.32253	-427.55029	245.82976	-174.54742	-487.72250	70.99596	-93.01069	-466.68259	69.62219	-130.69743	-537.17719	29.14227	-118.97779	-342.71576	36.92811	-205.68835	-371.72296	25.31071	-125.20212	-296.74451	28.18202 
4	0.015	-42.53582	-355.08868	1604.11926	55.22057	-356.32144	1601.04492	-73.80355	-500.23965	1559.64539	59.11769	-524.67145	1563.71655	4.70829	-527.74811	1415.01270	4.12829	-535.13464	1079.32874	-1.86044	-352.87512	1360.27234	10.16038	-280.14581	1249.38525	97.68156	-570.31366	1313.74756	-165.99220	-315.98734	963.91949	187.39232	-308.64044	970.07294	-80.99985	-549.60980	982.91718	51.39661	-556.49799	980.46991	142.50868	-458.65936	1420.95874	275.29401	-477.21265	1369.96057	421.23166	-452.67780	1314.32593	398.96371	-388.17871	1267.10059	552.69421	-431.41309	1346.83643	651.20990	-391.09793	1362.18811	657.09772	-405.63251	1292.54529	717.09308	-402.13336	1328.31946	-130.59232	-465.00079	1411.04529	-272.03323	-454.16861	1388.45068	-411.16171	-433.72369	1343.27612	-388.95697	-353.88333	1275.45593	-535.85858	-396.71750	1369.01770	-643.69196	-343.39438	1374.89539	-651.50702	-376.47116	1305.70959	-701.12036	-366.67853	1336.07495	245.18750	-403.60236	723.10748	214.83801	-445.05542	558.14648	214.51976	-370.49426	631.04376	233.33722	-426.91309	641.97028	203.59653	-458.71164	465.80426	24.92970	-449.58405	443.69373	131.65256	-406.74466	349.80371	153.14464	-432.18378	182.22063	202.57124	-437.76093	278.03595	142.80661	-424.19650	265.58527	213.44443	-483.35254	67.71983	129.35802	-461.16586	70.22694	171.21463	-534.60406	27.05304	142.09891	-344.24796	34.57406	233.91722	-360.18918	27.35944	154.26672	-297.05847	30.63790	-218.51700	-363.38547	720.77051	-174.42381	-402.12906	556.70526	-166.83247	-332.53140	635.19830	-198.25815	-383.63300	639.54114	-164.15152	-440.01712	488.33041	7.39376	-453.42993	458.62918	-83.24708	-413.38678	329.19696	-112.02585	-433.80179	161.33755	-158.42665	-435.52536	257.16080	-98.30775	-427.51123	245.82181	-174.75235	-487.85532	71.08976	-93.00970	-466.68527	69.62075	-130.73499	-537.18665	29.15071	-119.03049	-342.77039	36.95195	-205.68629	-371.76181	25.32113	-125.21368	-296.75998	28.18636 
